# OB3 -> OBJ Test
v 9.999998 0.0 49.000004
v 32.0 -1.9073486E-6 20.0
v -5.000002 26.0 30.0
v 32.000004 -4.053116E-6 20.0
v -2.0000026 11.000001 15.000001
v -5.0000014 26.0 30.0
v -1.999996 11.0 15.0
v -22.999998 10.999998 44.0
v -4.999995 26.000006 30.0
v -23.0 10.999997 44.0
v 10.0 -3.8146973E-6 49.0
v -4.999999 26.0 29.999998
v -4.000001 6.0 -30.000002
v 21.0 12.000001 -4.0
v 17.999998 45.999996 -53.000004
v 55.0 6.0000014 -4.9999943
v 30.999998 -0.99999857 -29.999998
v 18.0 46.0 -53.0
v 30.999989 -0.99999714 -30.000002
v -3.9999986 6.0 -30.000002
v 17.999996 46.000008 -53.000004
v 20.999996 12.000006 -3.9999957
v 54.999992 6.000005 -4.9999957
v 17.999996 46.0 -52.99999
v -30.000015 14.000011 20.999998
v -62.000027 20.000017 5.9999967
v -34.000015 36.000015 54.000004
v -62.0 20.000002 6.000002
v -62.0 7.0 40.0
v -34.0 36.000004 54.0
v -30.000002 0.0 54.0
v -30.000004 14.000004 21.000002
v -34.0 36.000008 54.0
v -62.0 7.0000005 40.0
v -30.000002 -2.3841858E-7 54.0
v -34.000004 36.0 54.0
v 55.999992 102.000015 13.999999
v 58.999992 100.00001 10.000002
v 59.999992 109.00001 10.000002
v 59.000015 100.00006 10.000001
v 52.000015 104.00007 6.000001
v 60.000015 109.00008 10.000001
v 52.00001 104.000015 5.9999924
v 56.00001 102.000015 13.999989
v 60.000004 109.000015 9.999992
v -53.999985 101.000015 -16.999996
v -61.99999 100.000015 -18.999996
v -57.999985 110.00002 -20.0
v -62.00001 99.99999 -18.999996
v -58.00001 102.0 -13.0
v -58.000008 110.0 -20.0
v -58.0 102.00001 -12.999996
v -54.0 101.0 -16.999992
v -58.0 110.0 -19.999996
v -55.999996 48.999996 15.999998
v -49.000004 52.0 8.0
v -60.0 61.999996 9.999998
v -49.000034 52.000015 8.000001
v -60.000034 47.00002 4.000002
v -60.00004 62.00002 10.000002
v -59.999996 46.99999 4.000002
v -55.999996 48.999992 15.999999
v -60.0 61.999996 10.000001
v 50.000004 50.000004 49.999996
v 54.000004 45.000004 59.000004
v 51.000004 60.000008 61.000004
v 54.0 45.0 58.999996
v 63.0 52.000004 51.999992
v 50.999996 60.0 60.999996
v 62.999966 51.999985 51.999992
v 49.999973 49.99999 49.999996
v 50.999966 59.999985 60.999992
v 47.000004 76.0 -37.0
v 38.000004 70.99999 -31.999998
v 36.000004 85.99999 -35.0
v 38.000004 70.999985 -32.000008
v 46.000004 78.0 -24.000004
v 36.000004 86.0 -35.000008
v 46.0 78.00001 -24.0
v 46.999996 76.000015 -37.000004
v 35.999992 86.000015 -35.0
v 52.000008 177.00003 19.000002
v 52.000004 177.00003 0.9999999
v 53.000008 210.00002 14.000001
v 52.00004 177.00003 1.0000114
v 38.00004 184.00003 9.000011
v 53.00003 210.00003 14.000015
v 38.00002 184.00005 9.000012
v 38.00002 184.00005 27.000021
v 53.00002 210.00005 14.000012
v 38.0 184.0 27.000002
v 52.0 177.00003 19.0
v 53.0 210.00003 13.999996
v -5.0 179.00002 -32.0
v 7.0 183.0 -21.999992
v 10.0 202.00002 -43.999992
v 16.999994 178.99998 -31.99999
v 6.999998 173.99998 -41.999996
v 9.999998 202.0 -43.999992
v 6.999998 173.99992 -41.999996
v -5.0 178.99994 -31.999996
v 9.999998 201.99991 -43.999996
v 7.0 182.99998 -22.0
v 17.0 178.99998 -31.999992
v 9.999996 201.99998 -43.999992
v -28.999985 185.0 9.999992
v -47.99997 189.0 2.9999847
v -46.999992 205.0 27.0
v -48.0 189.0 2.9999998
v -48.000004 178.0 20.0
v -47.0 205.0 27.000004
v -29.000004 171.0 27.000008
v -29.000004 185.0 10.000008
v -46.999996 205.0 27.000011
v -47.999996 178.0 20.0
v -29.000002 170.99998 27.0
v -47.0 204.99998 27.0
v 8.00005 241.00008 -49.0
v 4.992634E-5 240.00006 -51.0
v 4.0000577 250.00008 -51.999996
v -1.1444092E-5 239.99997 -51.000004
v 3.9999886 241.99998 -45.000004
v 3.9999886 249.99997 -52.000004
v 4.0000076 242.0 -45.0
v 8.000008 241.0 -49.0
v 4.0000076 250.00002 -52.000008
v 55.999996 219.99998 -52.0
v 61.999996 214.99998 -60.000008
v 65.0 229.99998 -58.0
v 62.000008 214.99995 -60.0
v 52.000008 221.99994 -64.0
v 65.00001 229.99994 -58.000004
v 51.999992 222.0 -63.99998
v 55.999992 220.0 -51.999996
v 64.99998 230.0 -57.999996
v -1.0430813E-7 187.99997 63.999992
v 6.000001 182.99998 56.0
v 9.0 197.99997 57.999996
v 6.0000057 182.99994 56.000004
v -3.9999943 189.99995 52.000008
v 9.000006 197.99997 58.000004
v -3.9999924 189.99998 51.999996
v 7.6293945E-6 187.99997 63.999992
v 9.000015 197.99998 58.0
v -2.9999976 97.99999 -34.0
v -14.999996 115.99999 -25.000004
v -10.999996 142.0 -40.0
v -15.0 116.000015 -25.0
v 0.0 114.000015 -13.0
v -11.0 142.0 -40.000004
v 3.8146973E-6 114.00001 -13.0
v 8.000002 118.0 -26.000008
v -11.0 142.00002 -40.000004
v 7.999999 117.99999 -25.999998
v -3.0 97.999985 -34.0
v -11.0 142.0 -40.0
v -38.999992 111.000015 41.999992
v -40.999992 115.0 20.999994
v -63.999992 144.00002 28.999994
v -60.0 111.0 2.9999988
v -57.0 106.00001 34.0
v -63.999996 144.0 29.0
v -57.0 106.0 33.999996
v -38.999996 111.0 41.999992
v -64.0 144.00002 28.999996
v -41.00001 115.00001 21.000004
v -60.00001 111.00001 3.000002
v -64.00001 144.00002 29.000004
v 41.99998 117.99997 20.000002
v 35.999985 121.99998 39.999996
v 55.99998 148.99997 20.99999
v 36.000004 122.0 40.000004
v 50.000004 114.0 28.000002
v 56.0 149.0 21.0
v 45.999996 115.99999 10.99999
v 41.999992 117.99999 19.999998
v 55.99999 148.99998 20.999998
v 50.000004 114.000015 28.000006
v 46.000004 116.00002 11.000002
v 56.0 149.00002 21.000002
v -53.000008 169.00003 31.000004
v -50.000008 168.00002 39.0
v -53.000008 178.00002 36.0
v -49.999996 167.99997 39.0
v -46.99999 169.99997 33.0
v -52.99999 177.99995 35.999992
v -46.99993 169.99995 32.999996
v -52.99993 168.99997 30.999996
v -52.99994 177.99997 36.000004
v -80.0 148.00002 -8.000004
v -90.00001 143.0 -9.0
v -90.000015 158.00002 -13.000008
v -89.99999 143.0 -9.000002
v -87.99999 149.99997 0.9999981
v -89.99999 158.0 -13.000002
v -88.000015 150.0 0.9999962
v -80.0 148.0 -8.000004
v -90.0 158.0 -13.000004
v 48.0 116.00001 -19.999998
v 38.0 111.000015 -21.0
v 39.0 126.00001 -24.999998
v 38.0 110.999985 -20.999998
v 39.999996 117.999985 -9.999998
v 39.0 125.999985 -24.999996
v 40.000008 118.00002 -10.0
v 48.00001 116.000015 -20.000004
v 39.000015 126.000015 -25.000004
v 63.999992 272.0 14.000002
v 66.99999 270.00003 10.000006
v 67.99999 279.00003 10.000004
v 67.00002 270.00018 10.000002
v 60.00002 274.00012 6.000001
v 68.00002 279.00015 10.000002
v 60.000015 274.0 5.999996
v 64.000015 272.00003 13.999996
v 68.000015 279.00003 9.999996
v -27.000008 200.00006 -49.000004
v -32.000004 198.00006 -50.000004
v -33.000008 207.00006 -50.000004
v -31.999992 197.99997 -49.99998
v -31.999992 201.99995 -41.99999
v -32.999992 206.99995 -49.99999
v -31.999992 202.00002 -41.999996
v -26.999992 200.00002 -49.000004
v -33.0 207.00002 -50.000004
v -48.000004 219.0 15.999996
v -41.000004 222.0 7.9999924
v -52.000004 232.0 9.999992
v -41.000057 222.00003 8.0
v -52.000065 217.00005 4.0
v -52.00005 232.00003 10.0
v -51.999996 216.99995 4.000002
v -47.999992 218.99994 16.0
v -51.999996 231.99995 9.999996
v 31.999992 147.00002 46.0
v 20.999996 150.00002 44.0
v 28.999985 160.00002 52.0
v 21.000004 150.0 43.999992
v 24.000004 145.0 55.999992
v 29.000004 159.99998 52.000008
v 24.000002 145.0 56.0
v 32.0 147.0 46.0
v 29.0 160.0 52.000004
v 17.999973 379.99976 -47.000008
v 15.999982 377.9998 -49.0
v 15.999982 386.9998 -50.0
v 16.000017 377.99976 -49.000008
v 12.000025 381.99976 -45.000004
v 16.000017 386.9998 -50.000008
v 12.000004 382.00003 -45.0
v 18.000004 380.00003 -46.999985
v 15.999996 387.00006 -50.000015
v -37.999996 308.00003 8.000002
v -38.999996 306.00003 12.0
v -38.999996 315.00006 13.000002
v -38.999996 305.99994 11.99999
v -33.999996 309.99997 12.999996
v -38.999996 314.99997 12.999998
v -33.99996 309.99994 13.0
v -37.999985 308.0 8.000015
v -38.99996 314.99994 13.0
v 1.0000229 326.99988 36.000023
v -1.9999619 329.99988 29.000036
v -2.9999619 339.99982 38.0
v -2.0 330.00003 29.000008
v -7.0000153 325.00003 36.000008
v -3.0 340.0 38.0
v -7.0 325.0 36.000008
v 1.0 327.0 36.000008
v -3.0000002 340.0 38.000004
v 34.000034 255.0001 -17.000008
v 31.000034 258.0001 -9.000023
v 38.000034 268.0001 -13.000015
v 31.0 258.0 -8.999996
v 39.0 252.99998 -8.999996
v 38.0 267.99997 -12.999989
v 38.999996 252.99995 -8.999998
v 33.999992 254.99995 -16.999998
v 37.999996 268.0 -12.999996

vn 0.21469982 0.21469982 0.17044082
vn -0.23666215 0.7162299 0.5114654
vn -0.470578 0.2578668 -0.19164453
vn -0.3610903 0.14721593 -0.2649887
vn 0.41660795 0.22614439 -0.2976055
vn 0.04932341 0.25294363 -0.11366539
vn 0.042007767 0.21247233 -0.13251117
vn -0.362602 0.07944548 -0.20867065
vn -0.832566 0.38858688 -0.3902685
vn 0.44661754 0.3454992 -0.05635169
vn 0.550345 -0.09373553 -0.122501016
vn 0.57788134 0.19091988 0.060225487
vn -0.1894303 0.70295334 -0.123816796
vn -0.24312055 0.20067874 -0.29211077
vn 0.3962664 0.24651209 -0.29950863
vn -0.079946905 0.10165451 0.41879526
vn -0.32121396 0.40101475 -0.25395924
vn 0.3206777 -0.29128528 -0.7764877
vn 0.037421726 0.21962044 0.011878431
vn 0.34030455 0.64503825 0.6140224
vn 0.13817112 0.10257161 -0.18222448
vn 0.45614603 0.68529284 -0.09402099
vn 0.49982443 0.08749504 0.20315027
vn 0.047709703 -0.056541055 -0.7200103
vn -0.028387174 0.2645155 0.091520354
vn -0.58109665 0.28435624 0.5731696
vn 0.0 -0.07412493 -0.6671244
vn -0.06419768 0.17909984 -0.14432828
vn -0.030194819 0.14071937 0.48995405
vn 0.29796556 0.37783125 0.0614374
vn 0.48707792 0.4296721 -0.1716364
vn -0.21679875 0.28238145 -0.43869373
vn -0.16596064 0.30525318 0.4190133
vn 0.76690274 0.040247384 0.4190133
vn -0.0685485 0.23859799 0.029993366
vn 0.013771206 0.1482451 -0.49556774
vn -0.18605211 0.17479235 0.5027515
vn -0.048215464 0.24000674 -0.04153192
vn -0.07437521 0.42886513 0.49013162
vn 0.050937116 0.5624283 0.4926795
vn -0.69923335 -0.06460742 0.48791027
vn -0.09609458 0.21642572 0.20640016
vn 0.4430034 0.3320624 -0.33358377
vn -0.32080913 0.32514066 0.25143564
vn -0.40217048 -0.044685606 -0.4634045
vn -0.00417684 0.59207344 0.61570376
vn -0.41460308 0.07217043 0.28792801
vn 0.29203388 0.03244821 0.47916225
vn 0.16705698 0.18175817 0.02565397
vn 0.33802193 0.16249847 -0.4384978
vn -0.14719829 0.2664844 0.18495254
vn -0.28457063 0.41791362 -0.23782142
vn 0.36384392 0.42456365 -0.121676624
vn 0.067399085 0.08446306 -0.34612718
vn -0.029632717 0.39262596 0.312485
vn -0.10136454 0.38782087 -0.29747134
vn 0.18634619 0.32835224 0.47515148
vn -0.6214931 0.32708195 -0.1499593
vn -0.19064847 0.40730703 0.22994033
vn -0.548203 -0.094199024 -0.10552645
vn -0.051682472 0.183193 -0.15914625
vn 0.7201399 0.17880529 -0.07737148
vn -0.28183708 0.086785756 -0.2594908
vn 0.5322342 0.17748314 -0.11842969
vn 0.024101079 0.30280197 -0.33376873
vn 0.07557991 0.26924446 0.5467577
vn -0.18112057 0.15166621 0.03683027
vn 0.20912991 0.11071583 0.62376946
vn 0.46847746 0.14321035 -0.19500554
vn -0.056042023 0.2558653 0.18490511
vn 0.62425864 -0.06936207 -0.12734154
vn 0.80387056 -0.08769809 0.25054148
vn 0.47403744 0.089298494 0.36763465
vn 0.064262174 0.18696027 -0.01366061
vn -0.14380422 0.18525372 -0.09146187
vn 0.1464231 0.25733423 -0.48134413
vn -0.3834373 0.116437934 -0.29109484
vn -0.07601631 0.28608847 -0.20557798
vn 0.07248958 0.24537204 0.044567656
vn 0.59077215 0.6034668 -0.084437504
vn -0.3810069 -0.083872475 -0.40977353
vn -0.21252269 0.5459282 -0.5884327
vn -0.09225404 -0.11205996 -0.6987676
vn -0.111574404 0.17700726 0.13723287
vn 0.642459 0.5936384 -0.30486956
vn 0.5436413 0.3466256 -0.14358363
vn 0.02784514 0.15475696 0.10726466
vn 0.051301792 0.3677008 0.17767273
vn -0.5948414 0.42750424 -0.4384978
vn -0.16336799 0.19091988 0.060225487
vn -0.6400722 0.1333879 0.060519785
vn -0.32836416 0.50567365 0.11961067
vn -0.03545513 0.18462041 -0.20401192
vn -0.5412628 -0.042082638 0.3787437
vn 0.08603065 0.23387583 -0.00974226
vn -0.20626375 0.3943266 0.25479573
vn 0.015346905 0.22618085 -0.005943279
vn 0.6837002 0.45104533 -0.21782415
vn -0.7028562 -0.09173623 0.4542477
vn -0.014347747 0.15044439 -0.06986351
vn 0.20794076 0.16199028 0.0712794
vn 0.063890934 0.59548324 0.012794837
vn -0.16211072 -0.10467624 0.5419057
vn 0.052190453 0.2511891 0.49693424
vn -0.3825957 -0.103539184 -0.38827193

c 0.9647059 0.9647059 0.9647059
c 0.9647059 0.5882353 0.0
c 0.6509804 0.12156863 0.0
c 0.7764706 0.2784314 0.0
c 0.9647059 0.43529412 0.0



f 1/2/20/0 2/2/22/0 3/2/102/0
f 4/2/22/0 5/2/82/0 6/2/102/0
f 7/2/82/0 8/2/92/0 9/2/102/0
f 10/2/92/0 11/2/20/0 12/2/102/0
f 13/2/8/0 14/2/2/0 15/2/7/0
f 16/2/10/0 17/2/18/0 18/2/7/0
f 19/2/18/0 20/2/8/0 21/2/7/0
f 22/2/2/0 23/2/10/0 24/2/7/0
f 25/2/98/0 26/2/13/0 27/2/88/0
f 28/2/13/0 29/2/26/0 30/2/88/0
f 31/2/48/0 32/2/98/0 33/2/88/0
f 34/2/26/0 35/2/48/0 36/2/88/0
f 37/3/66/0 38/3/71/0 39/3/101/0
f 40/3/71/0 41/3/78/0 42/3/101/0
f 43/3/78/0 44/3/66/0 45/3/101/0
f 46/4/69/0 47/4/63/0 48/4/19/0
f 49/4/63/0 50/4/39/0 51/4/19/0
f 52/4/39/0 53/4/69/0 54/4/19/0
f 55/5/37/0 56/5/53/0 57/5/35/0
f 58/5/53/0 59/5/77/0 60/5/35/0
f 61/5/77/0 62/5/37/0 63/5/35/0
f 64/5/3/0 65/5/103/0 66/5/84/0
f 67/5/103/0 68/5/30/0 69/5/84/0
f 70/5/30/0 71/5/3/0 72/5/84/0
f 73/5/76/0 74/5/60/0 75/5/75/0
f 76/5/60/0 77/5/55/0 78/5/75/0
f 79/5/55/0 80/5/76/0 81/5/75/0
f 82/2/34/0 83/2/50/0 84/2/95/0
f 85/2/50/0 86/2/89/0 87/2/95/0
f 88/2/89/0 89/2/33/0 90/2/95/0
f 91/2/33/0 92/2/34/0 93/2/95/0
f 94/2/58/0 95/2/40/0 96/2/6/0
f 97/2/62/0 98/2/24/0 99/2/6/0
f 100/2/24/0 101/2/58/0 102/2/6/0
f 103/2/40/0 104/2/62/0 105/2/6/0
f 106/2/80/0 107/2/17/0 108/2/70/0
f 109/2/17/0 110/2/99/0 111/2/70/0
f 112/2/68/0 113/2/80/0 114/2/70/0
f 115/2/99/0 116/2/68/0 117/2/70/0
f 118/4/69/0 119/4/63/0 120/4/19/0
f 121/4/63/0 122/4/39/0 123/4/19/0
f 124/4/39/0 125/4/69/0 126/4/19/0
f 127/5/104/0 128/5/11/0 129/5/49/0
f 130/5/11/0 131/5/56/0 132/5/49/0
f 133/5/56/0 134/5/104/0 135/5/49/0
f 136/5/104/0 137/5/11/0 138/5/49/0
f 139/5/11/0 140/5/56/0 141/5/49/0
f 142/5/56/0 143/5/104/0 144/5/49/0
f 145/2/83/0 146/2/91/0 147/2/38/0
f 148/2/91/0 149/2/46/0 150/2/38/0
f 151/2/46/0 152/2/86/0 153/2/38/0
f 154/2/86/0 155/2/83/0 156/2/38/0
f 157/2/57/0 158/2/85/0 159/2/25/0
f 160/2/14/0 161/2/41/0 162/2/25/0
f 163/2/41/0 164/2/57/0 165/2/25/0
f 166/2/85/0 167/2/14/0 168/2/25/0
f 169/2/9/0 170/2/42/0 171/2/100/0
f 172/2/42/0 173/2/72/0 174/2/100/0
f 175/2/54/0 176/2/9/0 177/2/100/0
f 178/2/72/0 179/2/54/0 180/2/100/0
f 181/4/4/0 182/4/16/0 183/4/97/0
f 184/4/16/0 185/4/31/0 186/4/97/0
f 187/4/31/0 188/4/4/0 189/4/97/0
f 190/5/15/0 191/5/105/0 192/5/28/0
f 193/5/105/0 194/5/96/0 195/5/28/0
f 196/5/96/0 197/5/15/0 198/5/28/0
f 199/5/5/0 200/5/81/0 201/5/61/0
f 202/5/81/0 203/5/59/0 204/5/61/0
f 205/5/59/0 206/5/5/0 207/5/61/0
f 208/3/66/0 209/3/71/0 210/3/101/0
f 211/3/71/0 212/3/78/0 213/3/101/0
f 214/3/78/0 215/3/66/0 216/3/101/0
f 217/3/43/0 218/3/45/0 219/3/93/0
f 220/3/45/0 221/3/51/0 222/3/93/0
f 223/3/51/0 224/3/43/0 225/3/93/0
f 226/5/37/0 227/5/53/0 228/5/35/0
f 229/5/53/0 230/5/77/0 231/5/35/0
f 232/5/77/0 233/5/37/0 234/5/35/0
f 235/5/64/0 236/5/52/0 237/5/79/0
f 238/5/52/0 239/5/29/0 240/5/79/0
f 241/5/29/0 242/5/64/0 243/5/79/0
f 244/3/12/0 245/3/27/0 246/3/21/0
f 247/3/27/0 248/3/90/0 249/3/21/0
f 250/3/90/0 251/3/12/0 252/3/21/0
f 253/3/32/0 254/3/94/0 255/3/67/0
f 256/3/94/0 257/3/1/0 258/3/67/0
f 259/3/1/0 260/3/32/0 261/3/67/0
f 262/5/73/0 263/5/65/0 264/5/87/0
f 265/5/65/0 266/5/47/0 267/5/87/0
f 268/5/47/0 269/5/73/0 270/5/87/0
f 271/5/36/0 272/5/44/0 273/5/74/0
f 274/5/44/0 275/5/23/0 276/5/74/0
f 277/5/23/0 278/5/36/0 279/5/74/0
