# OB3 -> OBJ Test
v 44.0 166.99997 21.0
v 44.0 166.99997 2.0
v 44.0 205.99997 16.0
v 44.000057 167.00003 1.9999962
v 26.000057 175.00003 10.000004
v 44.000072 206.00005 16.000004
v 25.999989 174.99998 9.999997
v 25.999989 175.0 30.000006
v 43.99999 206.0 15.999997
v 26.0 174.99998 29.999996
v 44.0 167.0 20.999998
v 44.0 206.0 16.0
v -16.999994 168.99998 -24.0
v 7.6293945E-6 173.0 -16.000008
v 5.0000114 196.00002 -33.000015
v 15.000004 169.0 -23.999996
v 7.6293945E-6 164.0 -30.999994
v 5.0 195.99998 -33.0
v -9.536743E-7 163.99995 -31.0
v -17.000002 168.99998 -24.000004
v 4.999999 195.99995 -33.0
v 0.0 173.0 -15.999992
v 14.999998 169.00002 -24.000004
v 4.999998 196.0 -32.999996
v -19.000011 177.00002 28.999996
v -39.00003 181.00003 22.999996
v -38.000015 196.0 40.999996
v -39.0 180.99998 23.000004
v -39.0 170.99998 35.0
v -38.0 196.0 41.000004
v -19.0 164.0 41.000004
v -19.0 177.0 29.000008
v -38.0 196.00002 41.0
v -39.0 170.99998 35.000004
v -18.999998 164.0 41.0
v -38.0 196.0 41.000008
v 56.0 264.0 13.999994
v 58.999992 262.00003 10.000006
v 59.999992 271.00003 10.0
v 59.000015 262.00018 10.000003
v 52.000015 266.00015 6.000002
v 60.000023 271.00018 10.000006
v 52.000015 266.0 5.9999886
v 56.000015 264.00003 13.999996
v 60.000015 271.00003 9.999996
v 5.2114017E-5 233.00008 -49.0
v -7.999948 232.00006 -51.0
v -3.9999402 242.00008 -52.0
v -8.000019 231.99997 -50.999992
v -4.000019 233.99997 -44.999992
v -4.000019 241.99997 -51.999992
v -4.0 234.0 -45.00001
v 7.6293945E-6 232.99998 -49.000004
v -3.9999924 241.99998 -52.000004
v -56.000004 210.99998 16.0
v -48.99999 213.99998 7.999996
v -59.999996 223.99998 9.999996
v -49.000057 214.00003 7.9999924
v -60.000065 209.00005 4.0
v -60.000057 224.00005 9.999992
v -59.999996 208.99997 4.000004
v -55.999992 210.99995 15.999998
v -59.999992 223.99995 9.999998
v 48.0 212.0 -52.0
v 54.0 206.99998 -60.000004
v 57.000008 222.0 -57.999996
v 54.000008 206.99995 -60.000008
v 44.00001 213.99994 -64.0
v 57.00001 221.99994 -58.000004
v 43.999992 213.99997 -63.999985
v 48.000015 212.0 -52.0
v 57.0 221.99997 -58.000008
v -7.999995 179.99997 63.999996
v -1.9999971 175.0 56.000004
v 1.0000038 189.99997 58.0
v -1.9999962 174.99994 56.000004
v -11.999989 181.99994 52.000008
v 1.0 189.99994 58.000004
v -12.0 182.0 51.999996
v -8.0 180.0 64.0
v 1.0 190.0 58.000008
v 20.000008 81.0 49.000008
v 35.000008 81.0 20.000002
v 10.000008 105.00001 30.000002
v 35.000004 81.0 19.999996
v 11.999998 92.000015 15.0
v 10.0 105.00001 29.999996
v 11.999988 91.99996 15.000006
v -2.0000105 91.99997 43.999992
v 9.999986 104.999954 30.000008
v -2.0000029 91.99999 44.0
v 20.0 81.0 48.999996
v 9.999998 105.0 29.999996
v 18.999998 86.99999 -30.0
v 34.0 93.0 -12.0
v 31.999998 124.0 -45.999996
v 53.999996 87.00001 -12.999998
v 39.0 81.0 -29.999998
v 32.0 124.0 -45.999992
v 39.000004 80.99999 -29.999996
v 19.000002 87.0 -30.0
v 31.999998 123.999985 -45.999996
v 33.999996 93.0 -12.000004
v 54.0 87.0 -13.000004
v -15.99999 94.99999 29.0
v -45.999985 100.0 19.000008
v -19.999987 115.0 48.000008
v -45.999996 99.999985 18.999996
v -45.999992 87.999985 38.999992
v -19.999996 114.99997 47.999992
v -16.0 80.999985 48.0
v -16.0 94.999985 29.0
v -20.000002 115.0 48.0
v -46.0 88.0 39.0
v -16.0 80.99999 48.000004
v -20.0 114.99999 48.0
v 68.0 182.00002 14.000004
v 71.0 180.0 10.0
v 71.99999 189.0 10.000004
v 71.000015 180.0001 10.000003
v 64.000015 184.0001 6.000001
v 72.000015 189.00012 10.000003
v 64.000015 184.00003 6.000004
v 68.000015 182.00003 13.999992
v 72.0 189.00003 9.999992
v -41.99997 181.00005 -17.0
v -49.99997 180.00003 -19.0
v -45.99996 190.00005 -19.999996
v -50.000004 179.99998 -18.999996
v -46.000008 181.99997 -12.999992
v -46.000008 189.99997 -19.999992
v -45.999996 182.0 -12.999996
v -41.999996 180.99998 -17.0
v -46.000004 190.0 -20.0
v -44.0 129.0 16.0
v -37.0 132.0 8.000006
v -47.999992 141.99998 10.000008
v -37.000042 132.00003 8.000004
v -48.000042 127.00002 4.000004
v -48.00005 142.00003 10.0
v -47.999996 126.99998 4.000002
v -43.999996 128.99997 16.0
v -47.999996 141.99997 10.000002
v 61.999996 130.00002 50.0
v 66.0 125.000015 59.0
v 63.0 140.00002 61.000008
v 66.0 125.00001 59.0
v 75.0 132.00002 52.0
v 63.000004 140.00002 61.0
v 74.99996 131.99997 51.999992
v 61.99996 129.99997 49.999992
v 62.99996 139.99998 60.999992
v 59.000015 155.99998 -37.000008
v 50.00001 150.99997 -31.999998
v 48.000008 165.99998 -35.0
v 50.0 151.0 -32.000004
v 58.000004 158.0 -24.000002
v 48.0 166.00002 -35.000004
v 57.99998 158.00003 -23.999998
v 58.999985 156.00002 -37.000008
v 47.999977 166.00002 -35.0
v -2.000002 -1.9999993 -56.000008
v -18.000004 16.000004 -38.000008
v -12.000004 50.000008 -52.000008
v -17.999996 16.0 -37.999996
v 2.0 9.0 -21.999998
v -11.999998 50.0 -52.0
v 1.9999998 9.000001 -22.0
v 12.0 17.999996 -39.0
v -12.0 50.0 -52.0
v 12.0 18.0 -39.0
v -1.9999981 -1.9999981 -56.0
v -32.000004 4.000001 48.000004
v -35.000004 9.999999 24.000002
v -68.0 54.000004 34.0
v -62.999996 4.0 3.9999995
v -59.0 -2.9999995 39.0
v -68.0 54.0 34.0
v -59.000004 -2.9999998 39.000004
v -32.0 4.0000005 48.000008
v -34.999996 9.999998 23.999996
v -62.999996 3.9999962 3.9999962
v -67.99999 53.999992 33.999992
v 38.0 12.000001 28.0
v 26.0 18.0 56.000004
v 66.0 66.00001 30.0
v 26.000002 18.0 56.0
v 55.0 5.0 39.0
v 66.0 66.0 30.000002
v 46.0 8.000004 15.999999
v 38.0 12.000004 27.999996
v 66.00001 66.00001 29.999998
v 55.0 4.9999943 39.0
v 45.999996 7.9999943 16.0
v 65.99999 65.99998 30.0
v -27.0 100.00003 -49.000004
v -32.0 98.00002 -50.000008
v -33.000004 107.00003 -50.000008
v -31.999992 97.99998 -49.999992
v -31.999992 101.99998 -41.999992
v -32.999992 106.99998 -49.99999
v -31.999996 102.0 -42.0
v -27.0 100.0 -49.000008
v -32.999996 107.0 -50.0
v -53.000008 69.000015 31.000004
v -50.000008 68.000015 39.000008
v -53.000008 78.000015 36.0
v -49.999992 67.99999 38.999996
v -46.999992 69.99999 33.0
v -52.999996 77.999985 36.000004
v -46.99996 69.99998 33.0
v -52.999958 68.99998 31.0
v -52.999954 77.99997 36.0
v 32.000004 47.000004 46.0
v 21.0 50.000004 44.0
v 28.999996 60.0 51.999996
v 20.999998 50.0 44.0
v 23.999998 44.999996 56.0
v 29.000002 60.000004 52.0
v 24.000002 45.0 56.0
v 32.0 47.000004 46.0
v 29.0 60.000008 52.000004
v -80.00001 48.000008 -8.0
v -90.000015 43.000008 -9.000002
v -90.00002 58.000008 -13.000006
v -90.0 43.0 -9.000003
v -88.0 49.999992 0.9999981
v -90.0 57.999996 -13.000001
v -88.0 50.000004 0.99999666
v -80.00001 48.000004 -8.000004
v -90.00001 58.000004 -13.0
v 48.0 16.0 -20.0
v 38.0 11.000001 -21.0
v 39.0 26.000004 -25.0
v 37.999996 10.999998 -21.0
v 39.999996 17.999996 -9.999998
v 38.999996 25.999994 -24.999996
v 40.000008 18.000008 -10.000003
v 48.00001 16.000006 -20.000004
v 39.000008 26.000008 -25.000004
v 9.0 289.00003 -52.0
v 5.0000076 287.0001 -54.0
v 5.0000076 296.00006 -55.0
v 5.0000005 287.00006 -53.999996
v 3.0000005 291.00006 -49.0
v 5.0000005 296.00003 -54.999996
v 3.0000076 290.99997 -49.0
v 9.0 289.0 -52.0
v 5.0 296.0 -55.000015
v 17.000065 317.99988 33.00003
v 10.000076 320.99988 29.00003
v 12.0000725 330.99982 36.000008
v 10.0 321.00003 29.000013
v 8.000008 316.00003 37.00001
v 12.000015 331.00006 36.000004
v 8.0 316.0 37.0
v 17.0 318.0 32.999996
v 11.999999 331.00003 36.0
v -34.000015 340.00015 -2.000003
v -36.000023 339.00015 2.999997
v -36.000023 349.00015 7.1525574E-7
v -36.0 339.0 3.0
v -30.999998 341.0 0.0
v -36.0 349.0 0.0
v -31.00003 341.00003 -7.6293945E-6
v -34.000046 340.00003 -2.000023
v -36.00003 349.00003 -7.6293945E-6
v -7.999996 287.99997 25.000004
v -9.0 287.0 31.000004
v -9.999996 296.99997 28.0
v -9.0 287.0 30.999992
v -4.999996 289.0 27.999992
v -10.0 297.0 28.0
v -5.000004 289.0 27.999992
v -7.9999886 287.99997 25.0
v -9.999996 296.99997 27.999985

vn 0.031954646 0.1710478 -0.024542868
vn -0.27666482 0.17352039 -0.3353114
vn -0.7483775 0.40710813 -0.5146348
vn -0.470578 0.2578668 -0.19164453
vn -0.63708603 0.14926082 0.08945367
vn 0.038762935 0.17882976 -0.1117304
vn 0.12057872 0.57187766 0.038769633
vn -0.27465504 0.10072947 0.4123218
vn -0.07484472 0.03723152 -0.6711215
vn -0.3610903 0.14721593 -0.2649887
vn 0.41660795 0.22614439 -0.2976055
vn 0.6181886 0.54387087 -0.35300928
vn 0.550345 -0.09373553 -0.122501016
vn 0.5670457 0.39926413 -0.06404951
vn 0.03668046 -0.062201396 -0.9035212
vn 0.34745234 0.040876746 0.52038634
vn 0.3962664 0.24651209 -0.29950863
vn 0.01900365 0.14450428 -0.19011995
vn -0.079946905 0.10165451 0.41879526
vn 0.74178493 0.05565383 0.43409988
vn -0.24820638 0.07148523 0.32101956
vn 0.037421726 0.21962044 0.011878431
vn -0.018142909 0.24282455 0.08065827
vn -0.5123651 0.2756307 0.65327376
vn 0.032890692 0.22581884 -0.09988402
vn 0.43695584 0.6220592 0.5557823
vn -0.2273067 -0.06747931 -0.60731375
vn 0.3705015 0.16316809 -0.4545397
vn -0.020372018 0.15729031 -0.13844025
vn -0.19579843 0.52169603 -0.47824305
vn -0.65447444 -0.058221765 0.51432586
vn 0.004804373 0.5112934 0.69652563
vn -0.561893 0.41423583 -0.4545397
vn -0.035020173 0.2742625 0.012702078
vn -0.06419768 0.17909984 -0.14432828
vn -0.34433684 0.49689853 0.16625993
vn 0.089945994 0.23494484 -0.010219902
vn -0.030194819 0.14071937 0.48995405
vn 0.29796556 0.37783125 0.0614374
vn 0.48247877 0.15508127 -0.0708437
vn 0.48707792 0.4296721 -0.1716364
vn 0.07387659 0.33789706 0.1855107
vn -0.0685485 0.23859799 0.029993366
vn 0.4959314 0.16886026 0.09482455
vn -0.18605211 0.17479235 0.5027515
vn -0.07437521 0.42886513 0.49013162
vn 0.5330779 0.3331737 0.05681035
vn 0.4430034 0.3320624 -0.33358377
vn -0.40217048 -0.044685606 -0.4634045
vn 0.5854943 0.6468568 -0.08872065
vn 0.16705698 0.18175817 0.02565397
vn -0.06630556 0.24774249 0.20286337
vn 0.009217551 0.19641787 0.035268247
vn -0.14719829 0.2664844 0.18495254
vn -0.28457063 0.41791362 -0.23782142
vn 0.36384392 0.42456365 -0.121676624
vn 0.098044544 0.08416418 -0.48874378
vn 0.24037899 0.31212872 0.496628
vn -0.13878858 0.23041643 0.2118633
vn -0.029632717 0.39262596 0.312485
vn -0.10136454 0.38782087 -0.29747134
vn -0.18900758 0.108484484 -0.4514585
vn -0.19064847 0.40730703 0.22994033
vn -0.548203 -0.094199024 -0.10552645
vn -0.051682472 0.183193 -0.15914625
vn 0.7076335 -0.09252753 0.23775432
vn -0.28183708 0.086785756 -0.2594908
vn 0.5322342 0.17748314 -0.11842969
vn 0.540206 0.5817233 -0.06573558
vn 0.07557991 0.26924446 0.5467577
vn -0.6728172 -0.086238265 0.4714623
vn 0.46847746 0.14321035 -0.19500554
vn 0.44009086 0.27505678 0.016025037
vn 0.62425864 -0.06936207 -0.12734154
vn 0.66011834 0.40016344 -0.28225237
vn -0.011229873 0.14448306 -0.11894378
vn -0.22570634 0.08618612 -0.61354387
vn -0.14380422 0.18525372 -0.09146187
vn 0.1464231 0.25733423 -0.48134413
vn -0.42921582 0.05212228 -0.2282051
vn -0.3834373 0.116437934 -0.29109484
vn -0.07601631 0.28608847 -0.20557798
vn 0.07248958 0.24537204 0.044567656
vn -0.19362369 0.31966388 -0.40134162
vn -0.19969915 0.6349174 -0.14936495
vn -0.41669738 0.2965564 -0.12892431
vn -0.3810069 -0.083872475 -0.40977353
vn -0.111574404 0.17700726 0.13723287
vn 0.4974963 0.23589888 -0.112897605
vn 0.029100925 0.5138391 0.7037532
vn -0.1906095 0.3067216 0.43409988
vn -0.24807414 0.07220625 0.2406875
vn -0.03545513 0.18462041 -0.20401192
vn -0.3355422 0.37499467 -0.2938543
vn -0.25034344 0.59465736 0.5569137
vn -0.20626375 0.3943266 0.25479573
vn 0.32786933 -0.23699784 -0.7803745
vn 0.015346905 0.22618085 -0.005943279
vn 0.20293108 0.12049033 0.699581
vn 0.20794076 0.16199028 0.0712794
vn -0.21317866 0.26509324 0.1498515
vn 0.5067417 0.30553725 0.0047442913
vn -0.16211072 -0.10467624 0.5419057
vn 0.052190453 0.2511891 0.49693424
vn -0.3825957 -0.103539184 -0.38827193

c 0.9647059 0.9647059 0.9647059
c 0.9647059 0.5882353 0.0
c 0.6509804 0.12156863 0.0
c 0.7764706 0.2784314 0.0
c 0.9647059 0.43529412 0.0



f 1/2/20/0 2/2/28/0 3/2/37/0
f 4/2/28/0 5/2/33/0 6/2/37/0
f 7/2/33/0 8/2/91/0 9/2/37/0
f 10/2/91/0 11/2/20/0 12/2/37/0
f 13/2/86/0 14/2/90/0 15/2/25/0
f 16/2/40/0 17/2/15/0 18/2/25/0
f 19/2/15/0 20/2/86/0 21/2/25/0
f 22/2/90/0 23/2/40/0 24/2/25/0
f 25/2/69/0 26/2/94/0 27/2/52/0
f 28/2/94/0 29/2/71/0 30/2/52/0
f 31/2/99/0 32/2/69/0 33/2/52/0
f 34/2/71/0 35/2/99/0 36/2/52/0
f 37/3/70/0 38/3/74/0 39/3/100/0
f 40/3/74/0 41/3/82/0 42/3/100/0
f 43/3/82/0 44/3/70/0 45/3/100/0
f 46/4/72/0 47/4/67/0 48/4/22/0
f 49/4/67/0 50/4/46/0 51/4/22/0
f 52/4/46/0 53/4/72/0 54/4/22/0
f 55/5/45/0 56/5/56/0 57/5/43/0
f 58/5/56/0 59/5/81/0 60/5/43/0
f 61/5/81/0 62/5/45/0 63/5/43/0
f 64/5/104/0 65/5/13/0 66/5/51/0
f 67/5/13/0 68/5/61/0 69/5/51/0
f 70/5/61/0 71/5/104/0 72/5/51/0
f 73/5/104/0 74/5/13/0 75/5/51/0
f 76/5/13/0 77/5/61/0 78/5/51/0
f 79/5/61/0 80/5/104/0 81/5/51/0
f 82/2/26/0 83/2/50/0 84/2/7/0
f 85/2/50/0 86/2/30/0 87/2/7/0
f 88/2/30/0 89/2/36/0 90/2/7/0
f 91/2/36/0 92/2/26/0 93/2/7/0
f 94/2/80/0 95/2/95/0 96/2/6/0
f 97/2/102/0 98/2/97/0 99/2/6/0
f 100/2/97/0 101/2/80/0 102/2/6/0
f 103/2/95/0 104/2/102/0 96/2/6/0
f 105/2/75/0 106/2/85/0 107/2/42/0
f 108/2/85/0 109/2/24/0 110/2/42/0
f 111/2/16/0 112/2/75/0 113/2/42/0
f 114/2/24/0 115/2/16/0 116/2/42/0
f 117/3/70/0 118/3/74/0 119/3/100/0
f 120/3/74/0 121/3/82/0 122/3/100/0
f 123/3/82/0 124/3/70/0 125/3/100/0
f 126/4/72/0 127/4/67/0 128/4/22/0
f 129/4/67/0 130/4/46/0 131/4/22/0
f 132/4/46/0 133/4/72/0 134/4/22/0
f 135/5/45/0 136/5/56/0 137/5/43/0
f 138/5/56/0 139/5/81/0 140/5/43/0
f 141/5/81/0 142/5/45/0 143/5/43/0
f 144/5/4/0 145/5/103/0 146/5/88/0
f 147/5/103/0 148/5/39/0 149/5/88/0
f 150/5/39/0 151/5/4/0 152/5/88/0
f 153/5/79/0 154/5/64/0 155/5/78/0
f 156/5/64/0 157/5/60/0 158/5/78/0
f 159/5/60/0 160/5/79/0 161/5/78/0
f 162/2/9/0 163/2/5/0 164/2/34/0
f 165/2/5/0 166/2/32/0 167/2/34/0
f 168/2/32/0 169/2/14/0 170/2/34/0
f 171/2/14/0 172/2/9/0 167/2/34/0
f 173/2/58/0 174/2/12/0 175/2/23/0
f 176/2/2/0 177/2/31/0 178/2/23/0
f 179/2/31/0 180/2/58/0 178/2/23/0
f 181/2/12/0 182/2/2/0 183/2/23/0
f 184/2/3/0 185/2/59/0 186/2/29/0
f 187/2/59/0 188/2/66/0 189/2/29/0
f 190/2/57/0 191/2/3/0 192/2/29/0
f 193/2/66/0 194/2/57/0 195/2/29/0
f 196/3/48/0 197/3/49/0 198/3/93/0
f 199/3/49/0 200/3/54/0 201/3/93/0
f 202/3/54/0 203/3/48/0 204/3/93/0
f 205/4/10/0 206/4/19/0 207/4/98/0
f 208/4/19/0 209/4/41/0 210/4/98/0
f 211/4/41/0 212/4/10/0 213/4/98/0
f 214/5/68/0 215/5/55/0 216/5/83/0
f 217/5/55/0 218/5/38/0 219/5/83/0
f 220/5/38/0 221/5/68/0 222/5/83/0
f 223/5/17/0 224/5/105/0 225/5/35/0
f 226/5/105/0 227/5/96/0 228/5/35/0
f 229/5/96/0 230/5/17/0 231/5/35/0
f 232/5/11/0 233/5/87/0 234/5/65/0
f 235/5/87/0 236/5/63/0 237/5/65/0
f 238/5/63/0 239/5/11/0 240/5/65/0
f 241/3/89/0 242/3/27/0 243/3/18/0
f 244/3/27/0 245/3/101/0 246/3/18/0
f 247/3/101/0 248/3/89/0 249/3/18/0
f 250/5/44/0 251/5/84/0 252/5/53/0
f 253/5/84/0 254/5/8/0 255/5/53/0
f 256/5/8/0 257/5/44/0 258/5/53/0
f 259/4/77/0 260/4/92/0 261/4/76/0
f 262/4/92/0 263/4/73/0 264/4/76/0
f 265/4/73/0 266/4/77/0 267/4/76/0
f 268/4/62/0 269/4/21/0 270/4/1/0
f 271/4/21/0 272/4/47/0 273/4/1/0
f 274/4/47/0 275/4/62/0 276/4/1/0
