# OB3 -> OBJ Test
v -127.99998 0.0 -64.0
v -127.99998 0.0 -192.00002
v 7.999997 39.999996 -128.0
v 55.999977 3.8146973E-6 -72.0
v -127.99994 0.0 -64.0
v 7.9999967 40.0 -128.0
v 40.0 -7.6293945E-6 -176.00002
v -128.00002 0.0 -192.00002
v 8.0 40.0 -128.0
v 56.000008 3.8146973E-6 -72.00001
v 39.999992 7.6293945E-6 -176.00002
v 7.999996 40.00001 -128.00002
v 3.8356284E-6 2.899397E-6 -63.000015
v -3.793766E-6 -2.8226489E-6 64.00001
v -88.00002 48.000015 1.0
v -168.0 -1.9073486E-6 -63.999996
v -1.4901161E-8 -3.8146973E-6 -62.999996
v -88.00001 47.999996 1.0000019
v -160.00002 0.0 32.0
v -4.7683716E-7 1.9073486E-6 64.00001
v -88.000015 48.000004 1.0
v -168.0 -7.6293945E-6 -63.999996
v -160.0 -7.6293945E-6 32.0
v -88.0 47.999996 1.0
v 9.536743E-7 5.722046E-6 -48.000008
v 64.0 5.722046E-6 -31.000006
v 32.0 32.000004 32.000004
v 1.0000004 1.4901161E-7 63.999996
v 2.2649765E-6 -3.6656857E-6 -48.000004
v 32.000008 32.000008 32.000004
v 55.999992 1.9073486E-6 55.999996
v 64.0 1.9073486E-6 -31.000004
v 31.999996 31.999998 31.999996
v 1.0 0.0 63.999992
v 56.000008 -3.8146973E-6 55.999996
v 32.0 31.999998 31.999994
v -184.0 0.0 -184.0
v -127.99999 0.0 -190.99998
v -159.99998 31.999996 -128.0
v -191.00005 -7.6293945E-6 -96.00002
v -184.00006 -1.5258789E-5 -184.00005
v -160.00003 31.999992 -128.00003
v -127.999985 -3.8146973E-6 -95.99999
v -127.999985 -7.6293945E-6 -190.99998
v -159.99997 31.999992 -127.99999
v -191.0 -3.8146973E-6 -96.0
v -128.0 -3.8146973E-6 -96.0
v -160.0 31.999996 -128.0

vn 0.25611958 -0.07488015 -0.32291973
vn 0.4027326 -0.77039987 0.2676288
vn 0.17040326 -0.08679351 -0.30786097
vn -0.27209407 0.018858045 0.32095906
vn 0.33191675 -0.13771275 0.23854196
vn 0.35355335 0.70710677 0.3535534
vn -0.24120244 -0.8401146 0.2984326
vn -0.3422136 0.7600327 0.38200614
vn 0.38348174 0.74160224 -0.36234736
vn 0.44068763 0.639858 0.4124564
vn 0.34183592 -0.06296682 -0.33797848
vn 0.38329828 -0.08518416 0.23795933
vn 0.41234657 -0.025677353 0.37378338
vn 0.12875742 -0.89136255 -0.2834921
vn 0.37814298 -0.03164655 0.3105911
vn 0.3729877 0.021891057 0.38322288
vn 0.3035757 -0.8032481 0.19986898
vn 0.37213168 -0.08169505 0.3061627
vn -0.31132197 -0.098939925 0.35947967
vn -0.29170802 -0.04004094 0.34021938

c 0.40392157 0.24705882 0.05882353
c 0.9647059 0.9647059 0.9647059
c 0.40392157 0.24705882 0.09019608



f 1/1/14/0 2/1/3/0 3/1/1/0
f 4/1/11/0 5/1/14/0 6/1/1/0
f 7/3/9/0 8/3/3/0 9/3/1/0
f 10/3/11/0 11/3/9/0 12/3/1/0
f 13/1/7/0 14/1/19/0 15/1/20/0
f 16/1/4/0 17/1/7/0 18/1/20/0
f 19/3/8/0 20/3/19/0 21/3/20/0
f 22/3/4/0 23/3/8/0 24/3/20/0
f 25/1/17/0 26/1/5/0 27/1/18/0
f 28/1/13/0 29/1/17/0 30/1/18/0
f 31/3/10/0 32/3/5/0 33/3/18/0
f 34/3/13/0 35/3/10/0 36/3/18/0
f 37/1/2/0 38/1/12/0 39/1/15/0
f 40/1/16/0 41/1/2/0 42/1/15/0
f 43/3/6/0 44/3/12/0 45/3/15/0
f 46/3/16/0 47/3/6/0 48/3/15/0
