# OB3 -> OBJ Test
v -7.9999976 -1.9073486E-6 48.000004
v 111.99997 72.000015 63.999992
v 119.99996 3.0994415E-5 56.0
v -120.00001 -1.04904175E-5 56.00002
v -95.99999 55.999992 56.00002
v -8.0 -4.7683716E-7 48.0
v -96.0 56.000027 56.000023
v -104.00001 96.00005 56.000023
v -16.000006 72.00003 48.000004
v 120.000015 104.0 56.0
v 112.000015 72.00001 63.999992
v -15.999997 72.0 48.0
v 111.99993 71.999985 64.0
v -15.999997 48.0 64.0
v -15.999999 72.0 48.0
v -16.0 48.000004 64.0
v -96.00001 56.0 56.0
v -16.0 72.0 48.0
v -15.999989 48.0 63.999992
v -7.999997 -1.9073486E-6 47.999996
v -95.99996 55.99999 55.999992
v 111.99995 71.999985 64.0
v -7.999996 -1.9073486E-6 48.000004
v -15.999996 47.999996 64.0
v 120.0 -1.1324883E-6 -56.00009
v 103.99999 79.99999 -56.00009
v -8.000001 0.0 -48.0
v -8.000001 4.7683716E-7 -48.0
v -103.99999 56.000004 -64.0
v -111.99999 0.0 -56.0
v -15.999998 88.0 -48.000008
v -111.99999 104.000015 -56.000004
v -103.99999 56.0 -64.0
v -15.999997 88.00001 -47.999973
v 103.99999 80.0 -56.0
v 111.99999 104.00001 -56.0
v -15.999999 88.0 -48.0
v -16.0 48.0 -64.0
v 104.0 80.0 -56.0
v -16.0 88.0 -48.0
v -104.0 56.0 -63.999996
v -16.000004 47.999996 -63.999996
v -104.0 56.000008 -64.0
v -8.000001 -9.536743E-7 -48.0
v -16.0 48.000004 -64.0
v -16.000002 48.000004 -64.0
v -7.9999995 -2.861023E-6 -48.000004
v 104.00001 80.0 -56.0
v -15.99999 112.00001 55.999992
v 103.99996 120.000015 47.999992
v 119.99995 104.0 55.999996
v 120.000015 103.999985 56.0
v -16.000004 72.0 47.999985
v -16.000008 111.999985 56.0
v -103.999985 96.00001 56.0
v -79.99999 112.00001 40.0
v -15.999999 112.0 56.0
v -15.999999 111.999985 56.0
v -15.999997 71.99999 47.999992
v -103.999954 96.0 56.0
v 112.0 104.0 -56.0
v 104.0 120.0 -48.0
v -16.0 104.0 -56.0
v -16.0 103.99999 -55.999996
v -16.0 88.00001 -48.0
v 112.0 103.99999 -55.999996
v -16.0 104.0 -56.000008
v -104.0 112.0 -48.000004
v -112.0 104.0 -56.000008
v -112.0 103.99999 -55.999996
v 111.99999 103.99999 -56.0
v 111.99999 103.99999 24.0
v 95.99999 119.99999 8.000002
v 112.00001 104.00001 -56.000008
v 96.0 120.000015 8.0
v 104.0 120.000015 -48.000008
v 103.999985 120.0 47.99998
v 95.99999 120.0 7.999996
v 111.999985 104.0 23.999996
v 104.000015 120.0 48.0
v 112.000015 104.00001 24.000002
v 120.00001 104.00001 56.000008
v 112.0 103.999985 24.000002
v 103.99999 -1.1920929E-7 -15.999998
v 120.0 -1.1920929E-7 56.000008
v 103.999985 -4.7683716E-7 -15.999999
v 111.999985 103.999985 23.999996
v 103.999985 79.999985 -55.999992
v 103.99999 79.999985 -56.0
v 119.999985 0.0 -56.0
v 103.999985 1.9073486E-6 -16.0
v 111.999985 103.99997 -55.999992
v 103.999985 79.99997 -55.999992
v 111.999985 103.99997 24.000004
v 112.0 72.00002 64.0
v 112.0 104.00004 24.000002
v 120.0 -2.861023E-6 56.0
v 112.000015 72.00001 64.000015
v 120.000015 104.00001 56.000015
v 112.000015 104.00002 24.0
v -120.00002 4.7683716E-7 56.00001
v -112.00002 2.3841858E-7 -16.000002
v -120.00002 104.00003 24.000004
v -120.0 104.0 23.999996
v -112.0 0.0 -16.000002
v -112.0 0.0 -16.0
v -112.00001 -9.536743E-7 -56.000004
v -104.00001 56.0 -64.0
v -120.00001 104.0 24.000004
v -112.00001 104.0 -56.000004
v -119.999985 9.536743E-6 55.999992
v -119.999985 103.999985 24.0
v -96.0 55.999992 55.999992
v -119.99998 103.999954 24.000002
v -103.99998 95.999954 55.999992
v -95.999985 55.99999 55.999992
v -96.0 120.00001 7.999995
v -120.0 104.0 24.0
v -112.0 104.00001 -56.000004
v -103.99999 111.99999 -47.999992
v -95.99999 119.99999 8.000002
v -111.99999 103.99999 -56.0
v -103.99999 96.000015 56.0
v -120.0 104.000015 24.000004
v -96.0 120.000015 8.0
v -103.999985 96.0 55.999992
v -96.0 120.0 7.9999924
v -79.99999 112.0 39.999996
v 95.99999 120.0 7.999998
v -16.000002 104.0 7.999999
v 103.99999 120.0 -47.999996
v -15.999999 103.999985 7.9999995
v 95.999985 119.999985 7.9999976
v 103.99999 119.999985 47.999992
v -95.99998 120.0 8.000002
v -103.99998 112.0 -48.000004
v -15.999992 104.0 8.0
v -80.0 112.0 40.0
v -96.0 120.0 8.000002
v -16.0 104.0 8.000001
v 103.999985 119.999985 47.999992
v -15.999999 111.999985 55.999992
v -15.999998 103.999985 8.000002
v -79.999985 111.999985 39.999992
v -15.999998 103.999985 8.0
v -15.999996 111.999985 55.999992
v -15.999994 104.0 -55.999996
v -15.999994 104.0 7.9999995
v -103.99998 112.0 -48.0
v -16.000004 104.000015 8.000001
v -16.000004 104.00002 -56.000008
v 104.00002 120.00002 -48.000004

vn -0.031300303 0.19410342 0.96908575
vn -0.4047441 0.012634144 0.51298344
vn -0.42143774 -0.73883766 0.003208082
vn 0.26018465 -0.36279207 -0.6198244
vn 0.02180799 -0.1670103 -0.9284622
vn -0.88229394 -0.17892036 0.09922923
vn 0.45706987 0.005099125 0.49276373
vn 0.35997328 -0.30219874 0.45583558
vn 0.105792105 -0.84428 0.21822013
vn 0.014969069 0.1968031 -0.96816194
vn -0.2641689 -0.74127954 -0.081586376
vn 0.05882581 -0.90557134 -0.23556168
vn 0.4959659 -0.05933551 -0.55823535
vn 0.050078258 -0.1166338 -0.8859436
vn 0.98930615 -0.03291608 0.09488122
vn -0.42524874 -0.08504975 0.31641325
vn 0.39523733 -0.009376714 0.58714557
vn -0.0034520235 -0.98408043 0.042544484
vn -0.007204664 -0.008504173 0.9365542
vn -0.28211483 -0.034585223 -0.59555477
vn -0.41700813 -0.13385563 0.44271848
vn 0.25829518 -0.8649203 -0.11331072
vn -0.02709873 -0.032498658 0.9371564
vn -0.31291923 -0.17974018 -0.48040953
vn -0.6352577 0.0024974719 -0.2850725
vn 0.021537006 -0.47434664 -0.5161649
vn 0.24174204 -0.045590922 -0.8250408
vn -0.15944155 -0.7046889 0.1961093
vn 0.0069379946 -0.37450242 0.5650648
vn -0.96144384 -0.049214378 -0.020558994
vn 0.76145786 -0.22165415 -0.16139618

c 0.30980393 0.15294118 0.0
c 0.9647059 0.9647059 0.9647059



f 1/1/10/0 2/1/20/0 3/1/25/0
f 4/1/13/0 5/1/27/0 6/1/10/0
f 7/1/27/0 8/1/4/0 9/1/5/0
f 10/1/24/0 11/1/20/0 12/1/5/0
f 13/1/20/0 14/1/14/0 15/1/5/0
f 16/1/14/0 17/1/27/0 18/1/5/0
f 19/1/14/0 20/1/10/0 21/1/27/0
f 22/1/20/0 23/1/10/0 24/1/14/0
f 25/1/16/0 26/1/2/0 27/1/1/0
f 28/1/1/0 29/1/17/0 30/1/7/0
f 31/1/19/0 32/1/8/0 33/1/17/0
f 34/1/19/0 35/1/2/0 36/1/21/0
f 37/1/19/0 38/1/23/0 39/1/2/0
f 40/1/19/0 41/1/17/0 42/1/23/0
f 43/1/17/0 44/1/1/0 45/1/23/0
f 46/1/23/0 47/1/1/0 48/1/2/0
f 49/1/26/0 50/1/11/0 51/1/24/0
f 52/1/24/0 53/1/5/0 54/1/26/0
f 55/1/4/0 56/1/12/0 57/1/26/0
f 58/1/26/0 59/1/5/0 60/1/4/0
f 61/1/21/0 62/1/28/0 63/1/29/0
f 64/1/29/0 65/1/19/0 66/1/21/0
f 67/1/29/0 68/1/9/0 69/1/8/0
f 70/1/8/0 65/1/19/0 64/1/29/0
f 71/1/21/0 72/1/6/0 73/1/3/0
f 74/1/21/0 75/1/3/0 76/1/28/0
f 77/1/11/0 78/1/3/0 79/1/6/0
f 80/1/11/0 81/1/6/0 82/1/24/0
f 83/1/6/0 84/1/30/0 85/1/25/0
f 86/1/30/0 87/1/6/0 88/1/2/0
f 89/1/2/0 90/1/16/0 91/1/30/0
f 92/1/21/0 93/1/2/0 94/1/6/0
f 95/1/20/0 96/1/6/0 97/1/25/0
f 98/1/20/0 99/1/24/0 100/1/6/0
f 101/1/13/0 102/1/15/0 103/1/31/0
f 41/1/17/0 104/1/31/0 105/1/15/0
f 106/1/15/0 107/1/7/0 108/1/17/0
f 109/1/31/0 108/1/17/0 110/1/8/0
f 111/1/13/0 112/1/31/0 113/1/27/0
f 114/1/31/0 115/1/4/0 116/1/27/0
f 117/1/22/0 118/1/31/0 119/1/8/0
f 120/1/9/0 121/1/22/0 122/1/8/0
f 123/1/4/0 124/1/31/0 125/1/22/0
f 126/1/4/0 127/1/22/0 128/1/12/0
f 129/1/3/0 130/1/18/0 131/1/28/0
f 132/1/18/0 133/1/3/0 134/1/11/0
f 135/1/22/0 136/1/9/0 137/1/18/0
f 138/1/12/0 139/1/22/0 140/1/18/0
f 141/1/11/0 142/1/26/0 143/1/18/0
f 144/1/12/0 145/1/18/0 146/1/26/0
f 147/1/29/0 148/1/18/0 149/1/9/0
f 150/1/18/0 151/1/29/0 152/1/28/0
