# OB3 -> OBJ Test
v 131.99997 -176.0 -132.0
v -123.999985 -176.0 -132.0
v -123.999985 -176.0 124.0
v 131.99997 -176.0 124.0
v 131.99998 -175.99997 -127.99999
v 131.99998 -175.99997 -96.0
v 115.99999 -91.999985 -111.99999
v 132.0 -176.0 -95.99999
v 100.0 -176.0 -95.99999
v 116.0 -92.0 -112.0
v 100.0 -175.99997 -96.00001
v 100.0 -175.99997 -127.99999
v 116.0 -91.999985 -111.99999
v 100.0 -176.0 -128.00002
v 132.0 -176.0 -128.00002
v 95.00001 -176.0 -10.0
v 95.0 -175.99998 10.000002
v 84.00001 -63.999992 4.2873125E-8
v 94.999954 -176.0 9.999989
v 72.99997 -176.0 9.999989
v 83.999954 -64.0 0.0
v 73.00001 -175.99997 10.000002
v 73.00001 -175.99998 -10.000001
v 84.00001 -64.0 -1.12919224E-7
v 73.0 -176.0 -9.999979
v 95.0 -176.0 -9.999979
v 84.0 -64.0 0.0
v -92.00001 -176.00002 -48.0
v -92.00001 -176.00002 -16.0
v -108.00001 -85.00001 -32.0
v -91.999954 -176.00002 -16.000023
v -123.99994 -176.00002 -16.000023
v -107.999954 -85.0 -32.0
v -124.00002 -176.00002 -16.000006
v -124.000015 -176.00002 -48.000008
v -108.000015 -85.00001 -32.0
v -124.0 -176.0 -47.999977
v -92.0 -176.0 -47.999977
v -108.0 -85.0 -32.0
v -15.000004 -175.99997 -93.0
v -15.000006 -175.99997 -66.99999
v -28.000002 -63.999992 -80.0
v -14.999998 -176.00002 -66.999985
v -40.999992 -176.00002 -66.999985
v -27.999996 -64.00001 -80.0
v -40.999996 -175.99997 -67.0
v -41.0 -175.99997 -93.0
v -27.999998 -63.99999 -80.0
v -41.0 -176.0 -93.00001
v -15.0 -176.0 -93.00001
v -28.0 -64.0 -80.0
v -4.000003 -175.99995 -7.9999995
v -4.000005 -175.99995 7.999999
v -12.000002 -63.99999 2.3115496E-7
v -4.0 -176.0 8.000011
v -20.0 -176.0 8.000011
v -12.0 -64.0 0.0
v -19.999998 -175.99997 7.9999986
v -19.999998 -175.99997 -8.000002
v -12.0 -63.99999 -1.5294918E-7
v -20.0 -176.0 -8.000006
v -4.0 -176.0 -8.000006
v -96.0 -174.0 20.000004
v -96.0 -173.99998 41.000004
v -108.00001 -97.999985 30.000002
v -96.0 -174.00002 40.999966
v -120.0 -174.00002 40.999966
v -108.0 -98.0 30.0
v -120.00001 -174.0 41.000008
v -120.00001 -174.0 20.0
v -108.0 -97.999985 30.000004
v -120.0 -174.0 20.000006
v -96.0 -174.0 20.000006
v -108.0 -98.0 30.000002
v 48.000004 -176.00002 67.000015
v 48.000008 -176.00003 91.000015
v 36.000008 -85.000015 79.00001
v 48.0 -176.0 91.00006
v 24.0 -176.0 91.00006
v 36.0 -85.0 79.0
v 24.00001 -176.00002 91.000015
v 24.000008 -176.00002 67.000015
v 24.0 -176.0 66.99996
v 48.0 -176.0 66.99996
v -92.0 -176.0 -128.0
v -92.00001 -176.0 -96.000015
v -108.00001 -64.0 -112.00001
v -91.999985 -176.0 -96.000015
v -123.999985 -176.0 -96.000015
v -107.999985 -64.0 -112.0
v -124.000015 -176.00002 -96.00001
v -124.000015 -176.00002 -127.99999
v -108.000015 -64.00001 -112.0
v -124.0 -176.0 -127.99997
v -92.0 -176.0 -127.99997
v -108.0 -64.0 -111.99999
v 64.0 -175.99998 -92.00001
v 64.0 -175.99997 -68.0
v 52.000008 -63.999996 -80.00001
v 64.0 -176.0 -68.00003
v 40.0 -176.0 -68.00003
v 52.0 -64.0 -80.0
v 40.000008 -175.99998 -68.0
v 40.000008 -175.99998 -92.00001
v 52.000004 -63.999992 -80.00001
v 40.0 -176.0 -91.99997
v 64.0 -176.0 -91.99997
v 52.0 -64.00001 -80.00001
v -22.999998 -175.99998 43.0
v -23.0 -175.99997 69.00001
v -36.0 -63.999985 56.000004
v -22.999996 -176.0 69.000015
v -48.999992 -176.0 69.000015
v -35.999992 -64.00001 56.0
v -48.999996 -175.99997 68.99999
v -49.0 -175.99997 42.999992
v -36.0 -63.999985 56.0
v -49.0 -176.0 42.999992
v -23.0 -176.0 42.999992
v -36.0 -64.0 56.0
v 91.99999 -175.99997 44.0
v 91.99999 -175.99995 59.999996
v 83.99999 -63.999985 52.0
v 92.0 -176.0 60.00001
v 76.0 -176.0 60.00001
v 84.0 -63.999996 52.0
v 76.00001 -175.99997 59.999996
v 76.0 -175.99997 44.000004
v 84.0 -63.999992 51.999996
v 76.0 -176.0 43.999996
v 92.0 -176.0 43.999996
v -56.000004 -175.99997 11.999999
v -56.000004 -175.99997 27.999998
v -64.0 -63.999992 19.999998
v -56.0 -176.0 28.000011
v -72.0 -176.0 28.000011
v -64.0 -64.0 19.999998
v -71.99999 -175.99997 28.0
v -72.0 -175.99995 12.000001
v -64.0 -63.999985 19.999996
v -72.0 -176.00002 11.999994
v -56.0 -176.00002 11.999994
v -64.0 -64.0 20.0
v 11.999999 -175.99998 -132.0
v 11.999998 -175.99997 -116.0
v 3.9999993 -63.999992 -124.0
v 12.0 -176.00002 -115.99998
v -4.0 -176.00002 -115.99998
v 4.0 -64.0 -123.99999
v -3.999998 -175.99997 -116.0
v -3.999998 -175.99997 -132.0
v 4.000001 -63.999996 -124.0
v -4.0 -176.0 -132.0
v 12.0 -176.0 -132.0
v 131.99998 -175.99997 -48.0
v 131.99998 -175.99997 -32.000004
v 123.99999 -63.99999 -40.000004
v 132.0 -176.0 -31.999989
v 116.0 -176.0 -31.999989
v 124.0 -64.0 -40.0
v 116.0 -175.99997 -32.0
v 115.99999 -175.99997 -47.999996
v 123.99999 -63.999985 -39.999996
v 116.0 -176.00002 -48.000004
v 132.0 -176.00002 -48.000004
v -83.0 -175.99998 90.99999
v -83.0 -175.99997 117.0
v -96.0 -84.99998 103.99999
v -83.0 -176.0 117.00002
v -109.0 -176.0 117.00002
v -96.0 -85.00001 104.0
v -109.0 -175.99995 116.99998
v -109.0 -175.99995 90.99999
v -96.0 -84.99999 103.999985
v -109.0 -176.00002 90.99998
v -83.0 -176.00002 90.99998
v -96.0 -85.0 104.0
v 126.999985 -175.99995 99.99999
v 126.999985 -175.99995 124.0
v 115.99999 -63.999985 111.99999
v 127.0 -176.0 123.99997
v 105.0 -176.0 123.99997
v 116.0 -64.0 112.0
v 104.99999 -175.99997 123.99999
v 104.99999 -175.99997 99.999985
v 115.99999 -63.999985 111.999985
v 105.0 -176.0 100.00003
v 127.0 -176.0 100.00003
v 116.0 -64.0 111.99999

vn -0.4976058 -0.09333797 0.49801886
vn 0.4976058 -0.09333797 -0.49801886
vn 0.49244618 -0.17316788 0.49244618
vn 0.49116927 -0.18711211 0.49116927
vn 0.49760583 -0.102138564 -0.4971546
vn 0.4938815 -0.14960341 -0.49484372
vn 0.0 -0.13073632 0.0
vn -0.4976058 -0.09333797 -0.49801886
vn 0.4976058 -0.09333797 0.49801886
vn 0.49244618 -0.17316788 -0.49244618
vn 0.49116927 -0.18711211 -0.49116927
vn 0.49760583 -0.102138564 0.4971546
vn 0.0 -0.17316788 0.0
vn 0.4966655 -0.11529735 0.4966655
vn -0.49760583 -0.102138564 -0.4971546
vn -0.49497473 -0.14142135 0.49497473
vn -0.49872935 -0.07124705 -0.49872935
vn -0.4966655 -0.11529735 -0.4966655
vn 0.0 -0.07124705 0.0
vn 0.4966655 -0.11529735 -0.4966655
vn -0.4938815 -0.14320855 0.49572715
vn 0.0 -0.106533125 0.0
vn -0.49760583 -0.102138564 0.4971546
vn -0.49497473 -0.14142135 -0.49497473
vn -0.49872935 -0.07124705 0.49872935
vn 0.0 -0.09333797 0.0
vn -0.4966655 -0.11529735 0.4966655
vn 0.0 -1.0 0.0
vn 0.0 -0.14640598 4.4171512E-4
vn -0.49116927 -0.18711211 -0.49116927
vn 0.49872935 -0.07124705 -0.49872935
vn 0.49497476 -0.14142136 0.49497476
vn 0.0 -0.14142136 0.0
vn -0.49497476 -0.14142136 0.49497476
vn 0.0 -0.14142135 0.0
vn 0.4971546 -0.106533125 -0.4971546
vn 0.49497473 -0.14142135 0.49497473
vn -0.49116927 -0.18711211 0.49116927
vn 0.49872935 -0.07124705 0.49872935
vn 0.49497476 -0.14142136 -0.49497476
vn -0.49497476 -0.14142136 -0.49497476
vn 0.4971546 -0.106533125 0.4971546
vn 0.49497473 -0.14142135 -0.49497473
vn -0.49570855 -0.13073632 -0.49570855
vn 0.4938815 -0.14320855 0.49572715
vn 0.49570855 -0.13073632 0.49570855
vn -0.49244618 -0.17316788 -0.49244618
vn -0.4971546 -0.106533125 -0.4971546
vn -0.4938815 -0.14960341 -0.49484372
vn -0.49570855 -0.13073632 0.49570855
vn 0.0 -0.18711211 0.0
vn 0.49570855 -0.13073632 -0.49570855
vn 0.0 -0.11529735 0.0
vn 0.0 -0.102138564 0.0
vn -0.49244618 -0.17316788 0.49244618
vn -0.4971546 -0.106533125 0.4971546

c 0.30980393 0.18431373 0.09019608
c 0.46666667 0.0 0.0
c 0.46666667 0.46666667 0.46666667
c 0.9647059 0.9647059 0.9647059



f 1/1/28/0 2/1/28/0 3/1/28/0
f 1/1/28/0 3/1/28/0 4/1/28/0
f 5/3/38/0 6/3/30/0 7/3/51/0
f 8/3/30/0 9/3/11/0 10/3/51/0
f 11/3/11/0 12/3/4/0 13/3/51/0
f 14/3/4/0 15/3/38/0 10/3/51/0
f 16/3/1/0 17/3/8/0 18/3/26/0
f 19/3/8/0 20/3/2/0 21/3/26/0
f 22/3/2/0 23/3/9/0 24/3/26/0
f 25/3/9/0 26/3/1/0 27/3/26/0
f 28/3/55/0 29/3/47/0 30/3/13/0
f 31/3/47/0 32/3/10/0 33/3/13/0
f 34/3/10/0 35/3/3/0 36/3/13/0
f 37/3/3/0 38/3/55/0 39/3/13/0
f 40/3/27/0 41/3/18/0 42/3/53/0
f 43/3/18/0 44/3/20/0 45/3/53/0
f 46/3/20/0 47/3/14/0 48/3/53/0
f 49/3/14/0 50/3/27/0 51/3/53/0
f 52/3/25/0 53/3/17/0 54/3/19/0
f 55/3/17/0 56/3/31/0 57/3/19/0
f 58/3/31/0 59/3/39/0 60/3/19/0
f 61/3/39/0 62/3/25/0 57/3/19/0
f 63/3/21/0 64/3/49/0 65/3/29/0
f 66/3/49/0 67/3/6/0 68/3/29/0
f 69/3/6/0 70/3/45/0 71/3/29/0
f 72/3/45/0 73/3/21/0 74/3/29/0
f 75/3/50/0 76/3/44/0 77/3/7/0
f 78/3/44/0 79/3/52/0 80/3/7/0
f 81/3/52/0 82/3/46/0 77/3/7/0
f 83/3/46/0 84/3/50/0 80/3/7/0
f 85/3/34/0 86/3/41/0 87/3/33/0
f 88/3/41/0 89/3/40/0 90/3/33/0
f 91/3/40/0 92/3/32/0 93/3/33/0
f 94/3/32/0 95/3/34/0 96/3/33/0
f 97/3/56/0 98/3/48/0 99/3/22/0
f 100/3/48/0 101/3/36/0 102/3/22/0
f 103/3/36/0 104/3/42/0 105/3/22/0
f 106/3/42/0 107/3/56/0 108/3/22/0
f 109/3/27/0 110/3/18/0 111/3/53/0
f 112/3/18/0 113/3/20/0 114/3/53/0
f 115/3/20/0 116/3/14/0 117/3/53/0
f 118/3/14/0 119/3/27/0 120/3/53/0
f 121/3/25/0 122/3/17/0 123/3/19/0
f 124/3/17/0 125/3/31/0 126/3/19/0
f 127/3/31/0 128/3/39/0 129/3/19/0
f 130/3/39/0 131/3/25/0 126/3/19/0
f 132/3/25/0 133/3/17/0 134/3/19/0
f 135/3/17/0 136/3/31/0 137/3/19/0
f 138/3/31/0 139/3/39/0 140/3/19/0
f 141/3/39/0 142/3/25/0 143/3/19/0
f 144/3/25/0 145/3/17/0 146/3/19/0
f 147/3/17/0 148/3/31/0 149/3/19/0
f 150/3/31/0 151/3/39/0 152/3/19/0
f 153/3/39/0 154/3/25/0 149/3/19/0
f 155/3/25/0 156/3/17/0 157/3/19/0
f 158/3/17/0 159/3/31/0 160/3/19/0
f 161/3/31/0 162/3/39/0 163/3/19/0
f 164/3/39/0 165/3/25/0 160/3/19/0
f 166/3/16/0 167/3/24/0 168/3/35/0
f 169/3/24/0 170/3/43/0 171/3/35/0
f 172/3/43/0 173/3/37/0 174/3/35/0
f 175/3/37/0 176/3/16/0 177/3/35/0
f 178/3/23/0 179/3/15/0 180/3/54/0
f 181/3/15/0 182/3/5/0 183/3/54/0
f 184/3/5/0 185/3/12/0 186/3/54/0
f 187/3/12/0 188/3/23/0 189/3/54/0
