# OB3 -> OBJ Test
v 48.0 -4.7683716E-6 -31.999998
v 31.999998 -1.9073486E-6 -48.0
v 47.999992 63.999977 -48.0
v 47.999996 0.0 -63.999992
v 63.999996 0.0 -47.999996
v 47.999996 63.999996 -47.999996
v 64.0 2.2649765E-6 -48.0
v 47.999996 4.172325E-6 -32.0
v 48.000004 63.99999 -48.0
v 32.000004 -2.3841858E-7 -48.0
v 48.000008 -2.3841858E-7 -63.999996
v 48.000004 63.999996 -48.000004
v -16.0 2.3841858E-7 -15.999999
v 0.0 -2.3841858E-7 -31.999998
v -9.536743E-7 63.999992 -16.0
v 16.0 2.3841858E-7 -15.999999
v 9.536743E-7 63.999992 -16.0
v -6.640536E-7 1.660134E-7 6.640535E-7
v -16.0 1.1196877E-6 -16.000002
v -6.3860994E-6 63.999977 -15.999999
v 16.0 1.1196877E-6 -16.000002
v 6.640536E-7 1.660134E-7 6.640535E-7
v 6.3860994E-6 63.999977 -15.999999
v -15.999999 48.0 -31.999996
v -48.0 -1.9073486E-6 -48.0
v -31.999996 -1.9073486E-6 -63.999996
v -16.0 48.0 -31.999996
v -31.999996 0.0 -63.999992
v -15.999997 4.7683716E-7 -47.999996
v -16.0 47.99998 -32.000008
v -31.999992 3.0965916E-6 -32.0
v -47.999992 5.0039403E-6 -47.999996
v -16.000008 47.99998 -31.999996
v -15.999999 1.9073486E-6 -47.999992
v -31.999996 3.8146973E-6 -31.999998
v -48.0 -4.7683716E-7 15.999997
v -32.0 -4.7683716E-7 0.0
v -16.0 79.99999 15.999997
v -31.999996 -3.8146973E-6 47.999996
v -47.999996 -9.536743E-7 15.999999
v -15.999998 79.99999 15.999998
v -3.8146973E-6 -2.861023E-6 31.999992
v -32.00001 -1.9073486E-6 47.999992
v -16.000011 80.00002 15.999995
v -15.999996 1.1920929E-7 -4.7683716E-7
v 0.0 0.0 31.999996
v -15.999998 79.999985 15.999998
v -32.0 -9.3515433E-7 4.675773E-6
v -16.0 -9.3515433E-7 4.675773E-6
v -16.0 80.0 16.0
v 31.999992 -1.9073486E-6 63.999996
v 15.999995 -1.9073486E-6 47.999996
v 31.999992 15.999994 47.999996
v 15.999999 0.0 48.0
v 31.999998 0.0 31.999998
v 31.999998 16.0 48.0
v 32.0 0.0 32.0
v 48.0 0.0 48.0
v 32.000004 15.999998 48.0
v 47.999985 5.722046E-6 47.999992
v 31.999992 3.8146973E-6 63.999992
v 31.999994 15.999998 47.999996
v 47.999985 -9.536743E-7 31.999996
v 31.999989 -9.536743E-7 31.999996
v 31.999989 31.999996 0.0
v 63.99998 5.722046E-6 16.0
v 47.999985 3.8146973E-6 31.999998
v 31.999994 31.999996 1.9073486E-6
v 15.999999 -1.9073486E-6 15.999999
v 15.999998 -9.536743E-7 8.970926E-8
v 31.999994 31.99999 -6.255465E-7
v 31.999989 -3.8146973E-6 31.999996
v 15.999994 -1.9073486E-6 15.999998
v 31.999989 31.999989 0.0
v 16.0 -2.3841858E-7 0.0
v 32.0 -7.1525574E-7 -15.999998
v 32.0 31.999998 -9.536743E-7
v 48.0 0.0 -15.999998
v 63.999996 0.0 0.0
v 31.999998 31.999998 0.0
v 32.0 4.7683716E-7 -16.0
v 48.0 4.7683716E-7 -16.0
v 32.0 32.0 0.0
v 63.999992 3.8146973E-6 1.9781517E-6
v 63.999992 1.9073486E-6 16.0
v 31.999998 31.999998 6.2945253E-7

vn 0.63279873 -0.403383 -0.055448472
vn -0.027724236 -0.2016915 -0.027724236
vn 0.14433756 -0.6097894 -0.032439128
vn 0.0 0.0 -0.6882472
vn 0.20510885 -0.29801065 -0.6424722
vn -0.6422285 -0.6422285 0.28867513
vn -0.28867513 -0.5122819 0.7358887
vn -0.055448472 -0.403383 0.63279873
vn 0.7612829 -0.30451316 0.12966894
vn 0.7805469 -0.39027345 0.33333334
vn 0.0 -0.17407766 -0.69631064
vn -0.6614025 -0.1741238 -0.20921654
vn -0.4454354 -0.14260161 0.71300805
vn 0.57735026 -0.57735026 0.0
vn -0.57735026 -0.57735026 0.0
vn -0.6882472 0.0 0.0
vn 0.0 -0.17407766 0.69631064
vn -0.24253564 -0.7173568 -0.596089
vn 0.0 -0.57735026 0.0
vn 0.7358887 -0.5122819 -0.28867513
vn 0.33333334 -0.39027345 0.7805469
vn -0.69631064 -0.17407766 0.0
vn 0.0 -0.17407766 0.0
vn 0.046114467 -0.5655352 0.046114475
vn 0.34020692 -0.23414084 0.83049726
vn 0.69631064 -0.17407766 0.0
vn 0.0 -0.57735026 -0.57735026
vn 0.03995216 -0.230678 0.1642971
vn -0.596089 -0.7173568 -0.24253564

c 0.43529412 0.21568628 0.0
c 0.9647059 0.9647059 0.9647059



f 1/1/11/0 2/1/26/0 3/1/23/0
f 4/1/17/0 5/1/22/0 6/1/23/0
f 7/1/22/0 8/1/11/0 9/1/23/0
f 10/1/26/0 11/1/17/0 12/1/23/0
f 13/1/26/0 14/1/17/0 15/1/23/0
f 14/1/17/0 16/1/22/0 17/1/23/0
f 18/1/11/0 19/1/26/0 20/1/23/0
f 21/1/22/0 22/1/11/0 23/1/23/0
f 24/1/2/0 25/1/1/0 26/1/8/0
f 27/1/2/0 28/1/8/0 29/1/16/0
f 30/1/2/0 31/1/4/0 32/1/1/0
f 33/1/2/0 34/1/16/0 35/1/4/0
f 36/1/9/0 37/1/25/0 38/1/28/0
f 39/1/5/0 40/1/9/0 41/1/28/0
f 42/1/12/0 43/1/5/0 44/1/28/0
f 45/1/13/0 46/1/12/0 47/1/28/0
f 48/1/25/0 49/1/13/0 50/1/28/0
f 51/1/27/0 52/1/14/0 53/1/19/0
f 54/1/14/0 55/1/3/0 56/1/19/0
f 57/1/3/0 58/1/15/0 59/1/19/0
f 60/1/15/0 61/1/27/0 62/1/19/0
f 63/1/18/0 64/1/3/0 65/1/24/0
f 66/1/29/0 67/1/18/0 68/1/24/0
f 69/1/20/0 70/1/10/0 71/1/24/0
f 72/1/3/0 73/1/20/0 74/1/24/0
f 75/1/10/0 76/1/21/0 77/1/24/0
f 78/1/7/0 79/1/6/0 80/1/24/0
f 81/1/21/0 82/1/7/0 83/1/24/0
f 84/1/6/0 85/1/29/0 86/1/24/0
